<?xml version="1.0" encoding="UTF-8"?>
<svg id="Layer_1" data-name="Layer 1" xmlns="http://www.w3.org/2000/svg" viewBox="0 0 366.25 95.27">
  <defs>
    <style>
      .cls-1 {
        fill: #fff;
      }
    </style>
  </defs>
  <path class="cls-1" d="M38.3,95.22c-5.92,0-11.23-.81-15.93-2.43-4.7-1.62-8.7-4.21-12-7.77-3.3-3.56-5.81-8.23-7.53-14.01-1.72-5.78-2.58-12.83-2.58-21.15,0-10.8,1.56-19.56,4.68-26.28,3.12-6.72,7.59-11.64,13.41-14.76,5.82-3.12,12.85-4.68,21.09-4.68,2.72,0,5.47.17,8.25.51,2.78.34,5.43.85,7.95,1.53v12.6c-2.6-.72-5.14-1.24-7.62-1.56-2.48-.32-5.02-.48-7.62-.48-5.4,0-9.94,1.01-13.62,3.03-3.68,2.02-6.46,5.43-8.34,10.23-1.88,4.8-2.82,11.34-2.82,19.62s.94,15.18,2.82,19.98c1.88,4.8,4.64,8.17,8.28,10.11,3.64,1.94,8.12,2.91,13.44,2.91,2.4,0,4.87-.25,7.41-.75s5.23-1.23,8.07-2.19v12.6c-2.28.88-4.95,1.59-8.01,2.13s-6.17.81-9.33.81Z"/>
  <path class="cls-1" d="M89.3,95.28c-6.84,0-12.47-1.14-16.89-3.42-4.42-2.28-7.69-5.92-9.81-10.92-2.12-5-3.18-11.6-3.18-19.8,0-7.6,1.02-13.89,3.06-18.87,2.04-4.98,4.95-8.67,8.73-11.07,3.78-2.4,8.31-3.6,13.59-3.6s9.37,1.2,12.87,3.6c3.5,2.4,6.17,6.11,8.01,11.13,1.84,5.02,2.76,11.43,2.76,19.23v4.38h-38.52v-9.24h27.06l-2.22,1.2c0-5.44-.4-9.63-1.2-12.57-.8-2.94-1.95-4.98-3.45-6.12s-3.29-1.71-5.37-1.71-4.03.57-5.61,1.71-2.81,3.18-3.69,6.12c-.88,2.94-1.32,7.13-1.32,12.57v6.18c0,4.92.57,8.79,1.71,11.61,1.14,2.82,2.94,4.82,5.4,6,2.46,1.18,5.73,1.77,9.81,1.77,2.24,0,4.52-.19,6.84-.57,2.32-.38,4.82-.93,7.5-1.65v11.76c-2.96.8-5.71,1.38-8.25,1.74-2.54.36-5.15.54-7.83.54Z"/>
  <path class="cls-1" d="M116.78,94.08V28.62h12l1.14,9h.72c1.68-3.48,3.91-5.98,6.69-7.5,2.78-1.52,5.81-2.28,9.09-2.28.8,0,1.57.03,2.31.09.74.06,1.37.15,1.89.27v13.56c-.84-.16-1.68-.26-2.52-.3-.84-.04-1.7-.06-2.58-.06-1.88,0-3.74.29-5.58.87-1.84.58-3.51,1.44-5.01,2.58-1.5,1.14-2.73,2.49-3.69,4.05v45.18h-14.46Z"/>
  <path class="cls-1" d="M169.46,95.22c-5.32,0-9.65-1.63-12.99-4.89-3.34-3.26-5.01-7.77-5.01-13.53,0-6.08,1.83-10.83,5.49-14.25,3.66-3.42,9.57-5.45,17.73-6.09l11.82-1.14,1.98,8.82-12.3,1.08c-3.56.32-6.2,1.32-7.92,3-1.72,1.68-2.58,4-2.58,6.96s.77,5.3,2.31,6.78c1.54,1.48,3.63,2.22,6.27,2.22,1.64,0,3.36-.39,5.16-1.17s3.42-2.21,4.86-4.29v-27c0-3.12-.45-5.58-1.35-7.38s-2.33-3.07-4.29-3.81c-1.96-.74-4.5-1.11-7.62-1.11-2.2,0-4.65.2-7.35.6-2.7.4-5.35,1-7.95,1.8v-11.76c2.64-.8,5.57-1.41,8.79-1.83,3.22-.42,6.27-.63,9.15-.63,5.6,0,10.23.78,13.89,2.34,3.66,1.56,6.38,4.15,8.16,7.77,1.78,3.62,2.67,8.51,2.67,14.67v41.7h-11.88l-1.08-7.02h-.72c-1.64,2.88-3.78,4.96-6.42,6.24-2.64,1.28-5.58,1.92-8.82,1.92Z"/>
  <path class="cls-1" d="M209.72,94.08V28.62h12.12l1.08,7.08h.72c2.16-2.76,4.62-4.8,7.38-6.12,2.76-1.32,5.8-1.98,9.12-1.98,3.12,0,5.96.68,8.52,2.04,2.56,1.36,4.6,3.62,6.12,6.78,1.52,3.16,2.28,7.44,2.28,12.84v44.82h-14.22v-43.32c0-3.88-.75-6.54-2.25-7.98-1.5-1.44-3.41-2.16-5.73-2.16-1.12,0-2.34.2-3.66.6-1.32.4-2.6,1.07-3.84,2.01-1.24.94-2.3,2.19-3.18,3.75v47.1h-14.46ZM275.48,94.08v-43.32c0-3.88-.78-6.54-2.34-7.98-1.56-1.44-3.52-2.16-5.88-2.16-1.12,0-2.36.21-3.72.63-1.36.42-2.7,1.15-4.02,2.19-1.32,1.04-2.44,2.44-3.36,4.2l-2.82-9.48c2.4-3.72,5.26-6.41,8.58-8.07,3.32-1.66,6.66-2.49,10.02-2.49s6.41.7,9.15,2.1,4.91,3.74,6.51,7.02c1.6,3.28,2.4,7.72,2.4,13.32v44.04h-14.52Z"/>
  <path class="cls-1" d="M308.6,17.4c-3.12,0-5.46-.76-7.02-2.28-1.56-1.52-2.34-3.6-2.34-6.24s.78-4.72,2.34-6.24c1.56-1.52,3.9-2.28,7.02-2.28s5.51.76,7.05,2.28c1.54,1.52,2.31,3.6,2.31,6.24s-.77,4.72-2.31,6.24c-1.54,1.52-3.89,2.28-7.05,2.28ZM301.34,94.08V28.62h14.58v65.46h-14.58Z"/>
  <path class="cls-1" d="M352.45,95.28c-5.88,0-10.87-1.16-14.97-3.48-4.1-2.32-7.22-5.96-9.36-10.92-2.14-4.96-3.21-11.44-3.21-19.44s1.2-14.77,3.6-19.71c2.4-4.94,5.84-8.53,10.32-10.77s9.84-3.36,16.08-3.36c1.92,0,3.84.09,5.76.27,1.92.18,3.78.49,5.58.93v12.06c-1.52-.36-3.05-.61-4.59-.75-1.54-.14-2.93-.21-4.17-.21-4,0-7.29.65-9.87,1.95-2.58,1.3-4.49,3.5-5.73,6.6-1.24,3.1-1.86,7.33-1.86,12.69s.58,9.99,1.74,13.17c1.16,3.18,2.89,5.43,5.19,6.75,2.3,1.32,5.17,1.98,8.61,1.98,1.56,0,3.22-.18,4.98-.54,1.76-.36,3.66-.88,5.7-1.56v12.06c-2.24.8-4.53,1.38-6.87,1.74-2.34.36-4.65.54-6.93.54Z"/>
</svg>